<svg id="SvgjsSvg1000" xmlns="http://www.w3.org/2000/svg" version="1.1" xmlns:xlink="http://www.w3.org/1999/xlink" xmlns:svgjs="http://svgjs.com/svgjs"><path d="M699 192.992L693 199.994L698 199.994C698 209.922 689.925 217.999 680 217.999C675.193 217.999 670.673 216.126 667.272 212.726C666.8810000000001 212.335 666.248 212.335 665.8580000000001 212.726C665.4670000000001 213.117 665.4670000000001 213.75 665.8580000000001 214.14C669.6370000000001 217.91899999999998 674.6590000000001 220 680.0000000000001 220C691.0280000000001 220 700.0000000000001 211.025 700.0000000000001 199.994L705.0000000000001 199.994ZM661 206.997L667 199.99400000000003L662.00391 199.99400000000003C662.00142 199.91633000000002 662 199.83836000000002 662 199.76000000000002C662 189.96800000000002 670.075 182.00100000000003 680 182.00100000000003C684.812 182.00100000000003 689.336 183.85200000000003 692.736 187.21200000000005C693.13 187.60000000000005 693.761 187.59700000000004 694.151 187.20300000000006C694.539 186.81000000000006 694.535 186.17700000000005 694.1429999999999 185.78900000000007C690.3639999999999 182.05600000000007 685.3419999999999 180.00000000000009 679.9999999999999 180.00000000000009C668.9719999999999 180.00000000000009 659.9999999999999 188.8640000000001 659.9999999999999 199.76000000000008C659.9999999999999 199.8382900000001 660.0011499999999 199.91619000000009 660.0032399999999 199.99400000000009L654.9999999999999 199.99400000000009ZM687 207.996L687 197.993C687 197.441 686.553 196.993 686 196.993L685 196.993L685 196.016C685 193.245 682.757 190.99099999999999 679.999 190.99099999999999C677.243 190.99099999999999 674.999 193.24499999999998 674.999 196.016L674.999 196.993L674 196.993C673.448 196.993 673 197.441 673 197.993L673 207.99599999999998C673 208.54899999999998 673.448 208.99699999999999 674 208.99699999999999L686 208.99699999999999C686.553 208.99699999999999 687 208.54899999999998 687 207.99599999999998ZM675 198.994L685 198.994L685 206.996L675 206.996ZM683 196.993L676.999 196.993L676.999 196.016C676.999 194.34799999999998 678.345 192.99099999999999 679.999 192.99099999999999C681.654 192.99099999999999 683 194.34799999999998 683 196.016ZM681 203.995L681 202.995C681 202.443 680.553 201.995 680 201.995C679.448 201.995 679 202.443 679 202.995L679 203.995C679 204.548 679.448 204.995 680 204.995C680.553 204.995 681 204.548 681 203.995Z " fill="currentColor" transform="matrix(1,0,0,1,-655,-180)"></path></svg>